<?xml version="1.0" encoding="utf-8"?>
<!-- Generator: Adobe Illustrator 21.0.0, SVG Export Plug-In . SVG Version: 6.00 Build 0)  -->
<svg version="1.1" id="Layer_1" xmlns="http://www.w3.org/2000/svg" xmlns:xlink="http://www.w3.org/1999/xlink" x="0px" y="0px"
	 viewBox="0 0 150 34" style="enable-background:new 0 0 150 34;" xml:space="preserve">
<style type="text/css">
	.st0{fill:#EF3030;}
	.st1{fill:#FFFFFF;}
	.st2{fill:none;stroke:#FFFFFF;stroke-width:0.25;stroke-miterlimit:10;}
	.st3{fill:#FFFFFF;stroke:#EF3030;stroke-width:0.3763;stroke-miterlimit:10;}
</style>
<g>
	<path class="st0" d="M49.2,19.6c-0.7-0.5-1.4-1-2.1-1.7c-0.5-0.6-0.9-1.1-1.2-1.6c-0.1-0.2-0.3-0.1-0.4,0c-0.3,0.6-0.7,1.2-1.3,1.9
		c-0.7,0.8-1.4,1.4-2.1,1.8l-0.8-0.8c1.1-0.5,2-1.3,2.7-2.4s1.1-2.1,1.1-3.2V13h-3.3v-1h7.7v1h-3.2v0.5c0,1,0.4,2,1.1,3
		c0.8,1,1.6,1.7,2.6,2.2L49.2,19.6z M44.4,25.6c-0.1,0-0.2-0.1-0.2-0.2v-4.6h1.2v3.6c0,0.1,0.1,0.2,0.2,0.2h8.2v1H44.4z M52.2,21.8
		v-5.6c0-0.1-0.1-0.2-0.2-0.2h-3.3v-1H52c0.1,0,0.2-0.1,0.2-0.2v-3.5h1.1v10.6H52.2z"/>
	<path class="st0" d="M67.3,26.1v-3.7c0-0.1-0.1-0.2-0.2-0.2h-8.2v-1H63c0.1,0,0.2-0.1,0.2-0.2v-1.3c0-0.1-0.1-0.2-0.2-0.2h-6.1v-1
		h13.8v1h-6.1c-0.1,0-0.2,0.1-0.2,0.2v1.3c0,0.1,0.1,0.2,0.2,0.2h3.6c0.1,0,0.2,0.1,0.2,0.2v4.7H67.3z M59.5,16.8
		c-0.1,0-0.2-0.1-0.2-0.2v-5.2h1.2V13c0,0.1,0.1,0.2,0.2,0.2h6.4c0.1,0,0.2-0.1,0.2-0.2v-1.6h1.1v5.2c0,0.1-0.1,0.2-0.2,0.2H59.5z
		 M67.1,14.2h-6.4c-0.1,0-0.2,0.1-0.2,0.2v1.1c0,0.1,0.1,0.2,0.2,0.2h6.4c0.1,0,0.2-0.1,0.2-0.2v-1.1C67.3,14.3,67.2,14.2,67.1,14.2
		z"/>
	<path class="st0" d="M84.7,26.1v-3.8c0-0.1-0.1-0.2-0.2-0.2h-8.2v-1h4.1c0.1,0,0.2-0.1,0.2-0.2v-1.4c0-0.1-0.1-0.2-0.2-0.2h-6.1v-1
		h13.8v1H82c-0.1,0-0.2,0.1-0.2,0.2v1.4c0,0.1,0.1,0.2,0.2,0.2h3.6c0.1,0,0.2,0.1,0.2,0.2v4.8H84.7z M86.8,16.9
		c0,0.1-0.1,0.1-0.2,0.1c-1.1-0.1-2.1-0.4-3.2-1c-1-0.5-1.7-0.9-2.1-1.3c-0.1-0.1-0.2-0.1-0.3,0c-0.4,0.5-1.1,0.9-2.1,1.4
		c-1,0.5-2.1,0.8-3.2,0.9c-0.1,0-0.2,0-0.2-0.1L75,15.9c1.1,0,2.2-0.2,3.3-0.7c1.1-0.5,1.8-1.1,2.2-1.7h-4.6v-1h4.7v-1.4h1.2v1.4
		h4.7v1h-4.6c0.3,0.7,1,1.3,2.2,1.7c1.1,0.5,2.2,0.7,3.3,0.7L86.8,16.9z"/>
	<path class="st0" d="M96.8,22.6c-1.2-1.2-2-2.5-2.6-4c-0.1-0.2-0.3-0.2-0.4,0c-0.2,0.6-0.5,1.2-0.9,1.9c-0.6,0.9-1.2,1.7-1.9,2.4
		L90.1,22c0.9-0.6,1.6-1.6,2.3-2.9c0.7-1.3,1-2.6,1-3.9v-1.5c0-0.1-0.1-0.2-0.2-0.2h-2.6v-1h6.7v1h-2.6c-0.1,0-0.2,0.1-0.2,0.2v1.5
		c0,1.2,0.3,2.5,0.9,3.7c0.6,1.2,1.3,2.2,2.2,2.9L96.8,22.6z M98.8,25.6v-8.1c0-0.1-0.1-0.2-0.2-0.2h-2.4v-1h2.4
		c0.1,0,0.2-0.1,0.2-0.2v-4.6h1.1v14.1H98.8z M101.5,26.1V11.2h1.1v14.9H101.5z"/>
	<path class="st0" d="M117.5,25.5c-1.9,0-3.5-0.7-4.7-2c-1.2-1.3-1.8-3-1.8-5.1c0-2.2,0.6-4,1.8-5.4c1.2-1.4,2.9-2.1,4.9-2.1
		c1.9,0,3.5,0.7,4.7,2s1.8,3,1.8,5.2c0,2.2-0.6,4-1.8,5.3C121.1,24.8,119.5,25.5,117.5,25.5z M117.7,13.7c-1.1,0-1.9,0.4-2.5,1.2
		c-0.6,0.8-0.9,1.9-0.9,3.3c0,1.4,0.3,2.5,0.9,3.3c0.6,0.8,1.4,1.2,2.5,1.2c1,0,1.9-0.4,2.5-1.2c0.6-0.8,0.9-1.9,0.9-3.3
		c0-1.5-0.3-2.6-0.9-3.4C119.5,14.1,118.7,13.7,117.7,13.7z"/>
	<path class="st0" d="M126.2,20.9c0-3.6,1.7-5.5,5-5.5c3.2,0,4.8,1.8,4.8,5.3v3.7h-2.7v-3.8c0-2-0.8-2.9-2.3-2.9
		c-1.5,0-2.2,0.9-2.2,2.8v3.9h-2.7V20.9z"/>
	<path class="st0" d="M141.3,24.5c-0.5,0-0.9-0.1-1.2-0.4c-0.3-0.3-0.5-0.6-0.5-1c0-0.4,0.2-0.7,0.5-1c0.3-0.3,0.7-0.4,1.2-0.4
		c0.5,0,0.9,0.1,1.2,0.4c0.3,0.3,0.5,0.6,0.5,1c0,0.4-0.2,0.7-0.5,1C142.2,24.4,141.8,24.5,141.3,24.5z M142.8,12.2l-0.4,8.3h-2.3
		l-0.3-8.3H142.8z"/>
	<rect x="7" y="6" class="st0" width="25" height="23"/>
	<g>
		<circle class="st1" cx="11" cy="22" r="1"/>
	</g>
	<g>
		<circle class="st1" cx="16" cy="17" r="1"/>
	</g>
	<g>
		<circle class="st1" cx="23" cy="25" r="1"/>
	</g>
	<g>
		<circle class="st1" cx="28" cy="11" r="1"/>
	</g>
	<polyline class="st2" points="11,22 16,17 23,25 28,11 	"/>
	<g>
		<path class="st3" d="M16,4.6c-0.1,0-0.2,0-0.4,0c-1.9,0.2-2.9,2.3-2.2,4l0.4,1l1.7,4.4c0.2,0.4,0.7,0.4,0.9,0l1.7-4.4l0.4-1
			c0.7-1.8-0.4-3.8-2.2-4C16.2,4.6,16.1,4.6,16,4.6z"/>
		<circle class="st0" cx="16" cy="7.6" r="1.5"/>
	</g>
</g>
</svg>
